HIERARCHY
ROOT pelvis
{
  OFFSET 0 100 0
  CHANNELS 6 Xposition Yposition Zposition Zrotation Xrotation Yrotation
  JOINT pelvis_right_femur
  {
    OFFSET -10.78128 -3.44521 -0.5502486
    CHANNELS 3 Zrotation Xrotation Yrotation
    JOINT right_femur_tibia
    {
      OFFSET -0.8047443 -44.0398 -0.1307829
      CHANNELS 3 Zrotation Xrotation Yrotation
      JOINT right_tibia_foot
      {
        OFFSET 3.006224 -47.83518 -5
        CHANNELS 3 Zrotation Xrotation Yrotation
        End Site
        {
          OFFSET 0 -5 15
        }
      }
    }
  }
  JOINT pelvis_left_femur
  {
    OFFSET 10.78128 -3.44521 -0.5502486
    CHANNELS 3 Zrotation Xrotation Yrotation
    JOINT left_femur_tibia
    {
      OFFSET 0.8047443 -44.0398 -0.1307829
      CHANNELS 3 Zrotation Xrotation Yrotation
      JOINT left_tibia_foot
      {
        OFFSET -4.370144 -48.10324 -4.275266
        CHANNELS 3 Zrotation Xrotation Yrotation
        End Site
        {
          OFFSET 0 -5 15
        }
      }
    }
  }
  JOINT pelvis_spine1
  {
    OFFSET 0 6.468898 -3.129235
    CHANNELS 3 Zrotation Xrotation Yrotation
    JOINT spine1
    {
      OFFSET 0 23.15396 4.99043
      CHANNELS 3 Zrotation Xrotation Yrotation
      JOINT spine2
      {
        OFFSET 0 20.79997 -5.064912
        CHANNELS 3 Zrotation Xrotation Yrotation
        JOINT neck
        {
          OFFSET 0 14.38658 9.616178
          CHANNELS 3 Zrotation Xrotation Yrotation
          End Site
          {
            OFFSET 0 20 0
          }
        }
      }
      JOINT right_manubrium
      {
        OFFSET -5.722621 16.35077 3.967754
        CHANNELS 3 Zrotation Xrotation Yrotation
        JOINT right_clavicle
        {
          OFFSET -13.16364 1.694482 -4.693211
          CHANNELS 3 Zrotation Xrotation Yrotation
          JOINT right_humerus
          {
            OFFSET -28.5034 -0.3100689 -2.792744
            CHANNELS 3 Zrotation Xrotation Yrotation
            JOINT right_radius
            {
              OFFSET -25.15693 0.02248979 -1.271978
              CHANNELS 3 Zrotation Xrotation Yrotation
              End Site
              {
                OFFSET -15 0 0
              }
            }
          }
        }
      }
      JOINT left_manubrium
      {
        OFFSET 5.722621 16.35077 3.967754
        CHANNELS 3 Zrotation Xrotation Yrotation
        JOINT left_clavicle
        {
          OFFSET 13.16364 1.694482 -4.693211
          CHANNELS 3 Zrotation Xrotation Yrotation
          JOINT left_humerus
          {
            OFFSET 29.39168 -1.063119 -2.237045
            CHANNELS 3 Zrotation Xrotation Yrotation
            JOINT left_radius
            {
              OFFSET 24.59957 -0.9528479 0.9047498
              CHANNELS 3 Zrotation Xrotation Yrotation
              End Site
              {
                OFFSET 15 -0 -0
              }
            }
          }
        }
      }
    }
  }
}
MOTION
Frames: 7
Frame Time: 0.0416666666667
0 103.5113 0 0.7398313 -1.951781 0.8219279 0.9507996 -21.64526 2.539458 -0 34.92076 -0 -4.455161 -4.596741 -3.450094 -6.095358 12.40913 -17.09806 0 -5.647556 0 2.584886 -21.82092 19.86322 -3.531542 -1.465489 2.705443 1.518681 8.803484 -7.3608 1.291667 22.01705 7.380685 3.242385 -21.71247 8.900743 3.82142 -18.25174 10.51397 86.95175 30.89966 -17.90418 -0 0 14.1637 -15.27384 10.14031 8.841918 6.450886 -20.09358 -3.433967 -89.41546 26.51889 16.74638 0 0 -18.56533 3.738785 14.81643 9.173844
0.5672824 102.4966 3.709188 0.7331652 -1.820418 1.609773 1.002158 -21.94995 2.506577 -0 34.42207 -0 -4.617805 -4.752694 -3.369535 -6.061805 12.53902 -17.20273 0 -6.224492 0 2.768566 -21.94867 19.94556 -3.52408 -1.513488 2.694073 1.561849 8.811399 -7.413213 1.269004 21.98308 7.387351 3.258147 -21.83001 8.897087 3.806867 -18.34975 10.5281 86.98346 30.93444 -17.99842 -0 0 14.21107 -15.13691 10.08289 8.785901 6.503607 -20.19531 -3.433012 -89.48128 26.49998 16.84196 0 0 -18.66388 3.873816 14.94115 9.002865
1.071292 101.4978 7.475183 0.5760679 -1.634319 2.291514 1.593748 -23.17776 2.593175 -0 31.31467 -0 -4.815515 -5.190946 -3.562144 -5.820442 13.16689 -16.8216 0 -2.961691 0 2.175273 -21.7443 19.27031 -3.275699 -1.463695 2.675859 1.757662 8.82422 -7.637462 1.265746 21.91193 7.315732 3.254416 -21.93478 8.797137 3.797932 -18.02091 10.58002 87.40963 30.98012 -18.92064 -0 0 13.54193 -14.75908 10.27623 8.375751 6.584228 -20.60126 -3.438768 -89.10575 26.5082 16.12019 0 0 -19.76769 3.977388 14.91979 8.888823
1.497768 100.3693 11.12899 0.3022875 -1.057092 2.85297 2.314217 -25.33747 2.56275 -0 26.7399 -0 -5.594652 -6.109848 -3.446959 -5.481628 14.17913 -16.84529 0 -2.081126 0 2.309966 -22.00138 18.95699 -3.022514 -1.594323 2.619718 2.083803 8.874898 -8.023401 1.18096 21.72929 7.271432 3.307207 -22.4446 8.688384 3.723641 -18.08725 10.67973 87.92648 31.10489 -20.0835 -0 0 13.10841 -13.95206 10.23266 7.815367 6.846856 -21.34033 -3.448706 -89.00394 26.41033 15.81969 0 0 -21.09346 4.592656 15.34952 8.123749
1.831207 99.12831 14.72362 0.04149971 -0.621052 3.30163 3.032379 -27.24785 2.560068 -0 22.42031 -0 -6.259602 -6.842032 -3.419743 -5.157067 15.10159 -16.71111 0 -0.3157605 0 2.232753 -22.08251 18.50451 -2.750701 -1.678149 2.572018 2.375623 8.9393 -8.371081 1.117581 21.5804 7.208728 3.34434 -22.83554 8.56531 3.639104 -18.04193 10.77338 88.47664 31.13395 -21.22469 -0 0 12.56028 -13.28895 10.25034 7.28991 7.064909 -22.02999 -3.478381 -88.79971 26.26527 15.36333 0 0 -22.38521 5.145547 15.65984 7.435076
2.066741 97.7919 18.27985 -0.214296 -0.2517474 3.637368 3.730214 -29.0469 2.525699 -0 18.22339 -0 -6.949019 -7.442508 -3.384777 -4.840846 15.99376 -16.53234 -0 1.551676 -0 2.169018 -22.10652 18.04454 -2.474295 -1.76419 2.522164 2.649073 9.034587 -8.704037 1.055745 21.44549 7.137628 3.380492 -23.19484 8.429417 3.520463 -18.0051 10.8701 89.06032 31.06354 -22.33971 -0 0 11.98983 -12.70528 10.25852 6.794625 7.27721 -22.73193 -3.537654 -88.57946 26.02279 14.89594 0 0 -23.6159 5.777778 15.96473 6.639617
2.207488 96.42302 21.88066 -0.4124837 -0.1031654 3.869219 4.337338 -30.3703 2.48375 -0 14.79725 -0 -7.446107 -7.696817 -3.442582 -4.583989 16.72119 -16.16474 -0 4.324293 -0 1.870858 -21.90583 17.45973 -2.202062 -1.787336 2.480362 2.849795 9.149885 -8.95736 1.025703 21.36934 7.05065 3.395687 -23.36746 8.28631 3.389547 -17.83488 10.95088 89.63655 30.85567 -23.31833 -0 0 11.31595 -12.37259 10.34219 6.393627 7.413675 -23.31564 -3.631094 -88.2479 25.7108 14.27028 0 0 -24.67637 6.300542 16.10357 5.973811
